<svg width="550" height="71" viewBox="0 0 550 71" fill="none" xmlns="http://www.w3.org/2000/svg">
<rect width="549.6" height="70" transform="translate(0 0.890625)" fill="black" fill-opacity="0.2"/>
<path d="M275 67.8906C257.4 67.8906 243 53.4906 243 35.8906C243 18.2906 257.4 3.89062 275 3.89062C292.6 3.89062 307 18.2906 307 35.8906C307 53.4906 292.6 67.8906 275 67.8906ZM275 5.89062C258.5 5.89062 245 19.3906 245 35.8906C245 52.3906 258.5 65.8906 275 65.8906C291.5 65.8906 305 52.3906 305 35.8906C305 19.3906 291.5 5.89062 275 5.89062Z" fill="white"/>
<path d="M259 42.8906C258.7 42.8906 258.5 42.7906 258.3 42.5906L251.6 35.8906L258.3 29.1906C258.7 28.7906 259.3 28.7906 259.7 29.1906C260.1 29.5906 260.1 30.1906 259.7 30.5906L254.4 35.8906L259.7 41.1906C260.1 41.5906 260.1 42.1906 259.7 42.5906C259.5 42.7906 259.3 42.8906 259 42.8906Z" fill="white"/>
<path d="M291 42.8906C290.7 42.8906 290.5 42.7906 290.3 42.5906C289.9 42.1906 289.9 41.5906 290.3 41.1906L295.6 35.8906L290.3 30.5906C289.9 30.1906 289.9 29.5906 290.3 29.1906C290.7 28.7906 291.3 28.7906 291.7 29.1906L298.4 35.8906L291.7 42.5906C291.5 42.7906 291.3 42.8906 291 42.8906Z" fill="white"/>
</svg>
