<svg width="327" height="47" viewBox="0 0 327 47" fill="none" xmlns="http://www.w3.org/2000/svg">
<g clip-path="url(#clip0_510_7252)">
<rect width="43.2" height="36" transform="translate(6.6001 5.84375)" fill="black"/>
<path d="M40.37 25.4054L41.9629 18.9944H29.8567V14.8848C29.8567 13.0766 30.8125 11.7616 35.9098 11.7616H42.6001V6.17252C41.3258 6.17252 37.5028 5.84375 33.0426 5.84375C23.4851 5.84375 17.1134 8.80265 17.1134 14.2273V18.9944H6.6001V25.4054H17.1134V41.8438H29.8567V25.4054H40.37Z" fill="black"/>
<rect width="43.2" height="36" transform="translate(61.8 5.84375)" fill="black"/>
<path d="M89.4546 12.0619C88.3091 12.0619 87.3273 13.0438 87.3273 14.1892C87.3273 15.3347 88.3091 16.3165 89.4546 16.3165C90.6 16.3165 91.5819 15.3347 91.5819 14.1892C91.5819 13.0438 90.6 12.0619 89.4546 12.0619ZM79.8 29.8983C76.5273 29.8983 73.7455 27.2801 73.7455 23.8437C73.7455 20.571 76.3637 17.7892 79.8 17.7892C83.0728 17.7892 85.8546 20.4074 85.8546 23.8437C85.8546 27.1165 83.0728 29.8983 79.8 29.8983ZM79.8 14.6801C74.7273 14.6801 70.6364 18.771 70.6364 23.8437C70.6364 28.9165 74.7273 33.0074 79.8 33.0074C84.8728 33.0074 88.9637 28.9165 88.9637 23.8437C88.9637 18.771 84.8728 14.6801 79.8 14.6801ZM94.5273 31.0437C94.5273 32.8437 94.2 33.8256 93.8728 34.3165C93.5455 35.1347 93.2182 35.7892 92.5637 36.4438C91.9091 37.0983 91.2546 37.4256 90.4364 37.7528C89.7819 38.0801 88.8 38.2437 87.1637 38.4074C85.2 38.571 84.5455 38.571 79.8 38.571C75.0546 38.571 74.4 38.571 72.6 38.4074C70.8 38.4074 69.8182 38.0801 69.3273 37.7528C68.5091 37.4256 67.8546 37.0983 67.2 36.4438C66.5455 35.7892 66.2182 35.1347 65.891 34.3165C65.7273 33.6619 65.4 32.6801 65.2364 31.0437C65.0728 29.2437 65.0728 28.5892 65.0728 23.8437C65.0728 19.0983 65.0728 18.4438 65.2364 16.6438C65.2364 14.8438 65.5637 13.8619 65.891 13.371C66.2182 12.5528 66.5455 11.8983 67.2 11.2438C67.8546 10.5892 68.5091 10.2619 69.3273 9.93466C69.9819 9.60739 70.9637 9.44375 72.6 9.28011C74.4 9.11648 75.0546 9.11648 79.8 9.11648C84.5455 9.11648 85.2 9.11648 87 9.28011C88.8 9.28011 89.7819 9.60739 90.2728 9.93466C91.091 10.2619 91.7455 10.5892 92.4 11.2438C93.0546 11.8983 93.3819 12.5528 93.7091 13.371C94.0364 14.0256 94.2 15.0074 94.3637 16.6438C94.5273 18.4438 94.5273 19.0983 94.5273 23.8437V31.0437ZM97.6364 16.4801C97.4728 14.5165 97.3091 13.2074 96.8182 12.0619C96.3273 10.9165 95.6728 9.93466 94.691 8.95284C93.7091 7.97102 92.7273 7.31648 91.5819 6.82557C90.4364 6.33466 89.1273 6.00739 87.1637 6.00739C85.3637 5.84375 84.7091 5.84375 79.8 5.84375C74.891 5.84375 74.2364 5.84375 72.4364 6.00739C70.4728 6.17102 69.1637 6.33466 68.0182 6.82557C66.8728 7.31648 65.891 7.97102 64.9091 8.95284C63.9273 9.93466 63.2728 10.9165 62.7819 12.0619C62.291 13.2074 61.9637 14.5165 61.9637 16.4801C61.8 18.2801 61.8 18.9347 61.8 23.8437C61.8 28.7528 61.8 29.4074 61.9637 31.2074C62.1273 33.171 62.291 34.4801 62.7819 35.6256C63.2728 36.771 63.9273 37.7528 64.9091 38.7347C65.891 39.7165 66.8728 40.371 68.0182 40.8619C69.1637 41.3528 70.4728 41.6801 72.4364 41.6801C74.2364 41.8437 74.891 41.8437 79.8 41.8437C84.7091 41.8437 85.3637 41.8437 87.1637 41.6801C89.1273 41.5165 90.4364 41.3528 91.5819 40.8619C92.7273 40.371 93.7091 39.7165 94.691 38.7347C95.6728 37.7528 96.3273 36.771 96.8182 35.6256C97.3091 34.4801 97.6364 33.171 97.6364 31.2074C97.8 29.4074 97.8 28.7528 97.8 23.8437C97.8 18.9347 97.8 18.2801 97.6364 16.4801Z" fill="black"/>
<rect width="43.2" height="36" transform="translate(117 5.84375)" fill="black"/>
<path d="M153 9.9976C151.687 10.6899 150.188 11.1514 148.688 11.3822C150.188 10.2284 151.312 8.38221 151.875 6.30529C150.375 7.45913 148.875 8.15144 147.187 8.61298C145.875 6.76683 143.812 5.84375 141.75 5.84375C137.625 5.84375 134.25 9.9976 134.25 15.0745C134.25 15.7668 134.25 16.4591 134.437 17.1514C128.25 16.6899 122.812 13.2284 119.062 7.6899C118.5 9.07452 118.125 10.6899 118.125 12.3053C118.125 15.5361 119.437 18.3053 121.5 19.9207C120.375 19.9207 119.062 19.4591 118.125 18.7668C118.125 23.1514 120.75 26.8437 124.125 27.7668C123.562 27.9976 122.813 27.9976 122.25 27.9976C121.688 27.9976 121.312 27.9976 120.937 27.7668C121.875 31.4591 124.687 33.9976 127.875 33.9976C125.25 36.5361 122.062 37.9207 118.687 37.9207C118.125 37.9207 117.562 37.9207 117 37.6899C120.375 40.2284 124.125 41.8438 128.437 41.8438C142.125 41.8438 149.625 27.9976 149.625 15.7668V14.613C150.75 13.4591 151.875 11.8438 153 9.9976Z" fill="black"/>
</g>
<defs>
<clipPath id="clip0_510_7252">
<rect width="327" height="46" fill="white" transform="translate(0 0.421875)"/>
</clipPath>
</defs>
</svg>
