<svg width="85" height="71" viewBox="0 0 85 71" fill="none" xmlns="http://www.w3.org/2000/svg">
<rect width="84" height="70" transform="translate(0.75 0.765625)" fill="black" fill-opacity="0.2"/>
<path d="M42.75 67.7656C25.15 67.7656 10.75 53.3656 10.75 35.7656C10.75 18.1656 25.15 3.76562 42.75 3.76562C60.35 3.76562 74.75 18.1656 74.75 35.7656C74.75 53.3656 60.35 67.7656 42.75 67.7656ZM42.75 5.76562C26.25 5.76562 12.75 19.2656 12.75 35.7656C12.75 52.2656 26.25 65.7656 42.75 65.7656C59.25 65.7656 72.75 52.2656 72.75 35.7656C72.75 19.2656 59.25 5.76562 42.75 5.76562Z" fill="white"/>
<path d="M26.7501 42.7656C26.4501 42.7656 26.2501 42.6656 26.0501 42.4656L19.3501 35.7656L26.0501 29.0656C26.4501 28.6656 27.0501 28.6656 27.4501 29.0656C27.8501 29.4656 27.8501 30.0656 27.4501 30.4656L22.1501 35.7656L27.4501 41.0656C27.8501 41.4656 27.8501 42.0656 27.4501 42.4656C27.2501 42.6656 27.0501 42.7656 26.7501 42.7656Z" fill="white"/>
<path d="M58.75 42.7656C58.45 42.7656 58.25 42.6656 58.05 42.4656C57.65 42.0656 57.65 41.4656 58.05 41.0656L63.35 35.7656L58.05 30.4656C57.65 30.0656 57.65 29.4656 58.05 29.0656C58.45 28.6656 59.05 28.6656 59.45 29.0656L66.15 35.7656L59.45 42.4656C59.25 42.6656 59.05 42.7656 58.75 42.7656Z" fill="white"/>
</svg>
