<svg width="91" height="91" viewBox="0 0 91 91" fill="none" xmlns="http://www.w3.org/2000/svg">
<g clip-path="url(#clip0_510_5884)">
<path d="M45.5 90.8906C70.3528 90.8906 90.5 70.7434 90.5 45.8906C90.5 21.0378 70.3528 0.890625 45.5 0.890625C20.6472 0.890625 0.5 21.0378 0.5 45.8906C0.5 70.7434 20.6472 90.8906 45.5 90.8906Z" fill="black"/>
<path d="M71.375 54.4045C68.756 54.4045 66.632 56.5285 66.632 59.1475C66.632 61.7665 68.756 63.8905 71.375 63.8905C73.994 63.8905 76.118 61.7665 76.118 59.1475C76.118 56.5285 73.994 54.4045 71.375 54.4045ZM61.61 28.1785L43.178 44.5945L24.755 28.1785C24.017 27.5215 22.856 28.0435 22.856 29.0335V62.8015C22.856 63.4045 23.342 63.8905 23.945 63.8905H31.352C31.955 63.8905 32.441 63.4045 32.441 62.8015V47.8525L42.017 56.3755C42.692 56.9695 43.7 56.9695 44.375 56.3755L53.951 47.8525V62.8015C53.951 63.4045 54.437 63.8905 55.04 63.8905H62.447C63.05 63.8905 63.536 63.4045 63.536 62.8015V29.0335C63.518 28.0525 62.348 27.5305 61.61 28.1785Z" fill="white"/>
</g>
<defs>
<clipPath id="clip0_510_5884">
<rect width="90" height="90" fill="white" transform="translate(0.5 0.890625)"/>
</clipPath>
</defs>
</svg>
